<svg xmlns="http://www.w3.org/2000/svg" viewBox="0 0 160 160" role="img" aria-labelledby="title desc">
  <title id="title">Cellar digging icon</title>
  <desc id="desc">A trowel lifting soil with a small root sprig.</desc>
  <defs>
    <linearGradient id="bg" x1="0" x2="1" y1="0" y2="1">
      <stop offset="0%" stop-color="#533725"/>
      <stop offset="100%" stop-color="#1d1716"/>
    </linearGradient>
    <linearGradient id="blade" x1="0" x2="0" y1="0" y2="1">
      <stop offset="0%" stop-color="#f2efe8"/>
      <stop offset="100%" stop-color="#abb0bf"/>
    </linearGradient>
  </defs>
  <circle cx="80" cy="80" r="74" fill="url(#bg)"/>
  <path d="M36 114 C58 102 88 102 124 118" fill="none" stroke="#8f6848" stroke-width="10" stroke-linecap="round"/>
  <path d="M84 52 l34 34 l-14 14 l-34 -34z" fill="#8c613f"/>
  <path d="M64 64 l24 24 l-30 36 c-6 8 -18 10 -24 4 s-4 -18 4 -24z" fill="url(#blade)"/>
  <path d="M96 108 c8 0 14 8 14 18" fill="none" stroke="#9eda82" stroke-width="5" stroke-linecap="round"/>
  <path d="M88 116 c-8 0 -14 8 -14 18" fill="none" stroke="#9eda82" stroke-width="5" stroke-linecap="round"/>
  <circle cx="92" cy="108" r="6" fill="#f0c574"/>
</svg>
