<svg xmlns="http://www.w3.org/2000/svg" viewBox="0 0 160 160" role="img" aria-labelledby="title desc">
  <title id="title">Lighter pours icon</title>
  <desc id="desc">A delicate wine pour with bright sparkles.</desc>
  <defs>
    <linearGradient id="bg" x1="0" x2="1" y1="0" y2="1">
      <stop offset="0%" stop-color="#5d376d"/>
      <stop offset="100%" stop-color="#16151f"/>
    </linearGradient>
    <linearGradient id="rose" x1="0" x2="0" y1="0" y2="1">
      <stop offset="0%" stop-color="#ffc7e7"/>
      <stop offset="100%" stop-color="#ff93d6"/>
    </linearGradient>
  </defs>
  <circle cx="80" cy="80" r="74" fill="url(#bg)"/>
  <path d="M58 44 h44 l-8 52 c-2 12 -10 20 -22 20 s-20 -8 -22 -20z" fill="rgba(255,255,255,.08)" stroke="#f6edf7" stroke-width="5" stroke-linejoin="round"/>
  <path d="M58 68 h44 c0 14 -10 22 -22 22 s-22 -8 -22 -22z" fill="url(#rose)" opacity=".94"/>
  <path d="M80 116 v18" stroke="#f6edf7" stroke-width="5" stroke-linecap="round"/>
  <path d="M64 136 h32" stroke="#f6edf7" stroke-width="5" stroke-linecap="round"/>
  <path d="M120 48 l4 10 l10 4 l-10 4 l-4 10 l-4 -10 l-10 -4 l10 -4z" fill="#ffe7a9"/>
  <circle cx="42" cy="54" r="6" fill="#ffe7a9" opacity=".9"/>
  <circle cx="34" cy="68" r="3.5" fill="#fff4d5" opacity=".78"/>
</svg>
