<svg xmlns="http://www.w3.org/2000/svg" viewBox="0 0 160 160" role="img" aria-labelledby="title desc">
  <title id="title">Root day icon</title>
  <desc id="desc">A mushroom and roots inside an earthy badge.</desc>
  <defs>
    <linearGradient id="bg" x1="0" x2="1" y1="0" y2="1">
      <stop offset="0%" stop-color="#6c4730"/>
      <stop offset="100%" stop-color="#281b18"/>
    </linearGradient>
    <linearGradient id="cap" x1="0" x2="0" y1="0" y2="1">
      <stop offset="0%" stop-color="#ffcc8f"/>
      <stop offset="100%" stop-color="#be7a42"/>
    </linearGradient>
  </defs>
  <circle cx="80" cy="80" r="74" fill="url(#bg)"/>
  <path d="M32 110 C48 102 70 100 84 108 C96 116 112 118 128 112" fill="none" stroke="#9d7757" stroke-width="8" stroke-linecap="round"/>
  <path d="M44 90 c8 -22 26 -34 42 -34 s34 12 42 34z" fill="url(#cap)"/>
  <rect x="72" y="88" width="16" height="24" rx="6" fill="#f1deca"/>
  <path d="M80 112 V130" stroke="#f1deca" stroke-width="6" stroke-linecap="round"/>
  <path d="M80 126 c-10 0 -18 6 -22 14" fill="none" stroke="#d9b08a" stroke-width="5" stroke-linecap="round"/>
  <path d="M80 126 c8 0 16 6 22 14" fill="none" stroke="#d9b08a" stroke-width="5" stroke-linecap="round"/>
  <path d="M80 122 c0 12 -10 18 -18 24" fill="none" stroke="#ad805d" stroke-width="4" stroke-linecap="round"/>
  <path d="M80 122 c0 12 10 18 18 24" fill="none" stroke="#ad805d" stroke-width="4" stroke-linecap="round"/>
</svg>
