<svg xmlns="http://www.w3.org/2000/svg" viewBox="0 0 160 160" role="img" aria-labelledby="title desc">
  <title id="title">Split the difference icon</title>
  <desc id="desc">A balance scale holding a wine glass and a mushroom.</desc>
  <defs>
    <linearGradient id="bg" x1="0" x2="1" y1="0" y2="1">
      <stop offset="0%" stop-color="#4c2d52"/>
      <stop offset="100%" stop-color="#181822"/>
    </linearGradient>
    <linearGradient id="gold" x1="0" x2="0" y1="0" y2="1">
      <stop offset="0%" stop-color="#ffe1a3"/>
      <stop offset="100%" stop-color="#bf8a4a"/>
    </linearGradient>
  </defs>
  <circle cx="80" cy="80" r="74" fill="url(#bg)"/>
  <path d="M44 54 H116" stroke="url(#gold)" stroke-width="7" stroke-linecap="round"/>
  <path d="M80 56 V116" stroke="url(#gold)" stroke-width="8" stroke-linecap="round"/>
  <path d="M62 54 C62 78 48 84 42 102 h30 c-6-18 -10-24 -10-48" fill="none" stroke="#f6d7a0" stroke-width="5" stroke-linejoin="round"/>
  <path d="M98 54 C98 78 108 82 118 102 h-30 c6-18 10-24 10-48" fill="none" stroke="#f6d7a0" stroke-width="5" stroke-linejoin="round"/>
  <path d="M54 96 c8 0 12 4 12 12 c0 6 -6 12 -16 12 c-8 0 -16 -4 -16 -12 c0 -6 6 -12 20 -12z" fill="#6f4635"/>
  <path d="M48 96 c2 -10 8 -18 18 -18 c10 0 16 8 18 18z" fill="#e2a16f"/>
  <path d="M102 84 h16 l-5 32 c-1 6 -6 10 -12 10 s-11 -4 -12 -10z" fill="rgba(255,255,255,.08)" stroke="#f6ebe0" stroke-width="4"/>
  <path d="M93 94 h34 c0 10 -8 14 -17 14 s-17 -4 -17 -14z" fill="#8c2d4d" opacity=".9"/>
  <path d="M60 122 h40" stroke="#7a5d63" stroke-width="8" stroke-linecap="round"/>
</svg>
