<svg xmlns="http://www.w3.org/2000/svg" viewBox="0 0 160 160" role="img" aria-labelledby="title desc">
  <title id="title">Savory plates icon</title>
  <desc id="desc">A plate with mushrooms and thyme.</desc>
  <defs>
    <linearGradient id="bg" x1="0" x2="1" y1="0" y2="1">
      <stop offset="0%" stop-color="#5f3c2a"/>
      <stop offset="100%" stop-color="#1f1817"/>
    </linearGradient>
    <linearGradient id="plate" x1="0" x2="0" y1="0" y2="1">
      <stop offset="0%" stop-color="#f8f1e4"/>
      <stop offset="100%" stop-color="#d7c4aa"/>
    </linearGradient>
  </defs>
  <circle cx="80" cy="80" r="74" fill="url(#bg)"/>
  <circle cx="80" cy="92" r="38" fill="url(#plate)"/>
  <circle cx="80" cy="92" r="28" fill="#efe4d3"/>
  <path d="M62 80 c2 -10 8 -18 18 -18 c10 0 16 8 18 18z" fill="#d99663"/>
  <path d="M68 82 c8 0 12 4 12 10 c0 6 -4 10 -12 10 c-8 0 -12 -4 -12 -10 c0 -6 4 -10 12 -10z" fill="#6d4736"/>
  <path d="M98 88 c2 -8 8 -14 14 -14 c8 0 12 6 14 14z" fill="#d99663"/>
  <path d="M102 88 c6 0 10 4 10 8 c0 6 -4 8 -10 8 c-6 0 -10 -2 -10 -8 c0 -4 4 -8 10 -8z" fill="#6d4736"/>
  <path d="M48 116 c8 -10 14 -12 22 -8" fill="none" stroke="#92cf8d" stroke-width="5" stroke-linecap="round"/>
  <path d="M56 124 c10 -10 18 -12 26 -6" fill="none" stroke="#92cf8d" stroke-width="4" stroke-linecap="round"/>
</svg>
